<svg xmlns="http://www.w3.org/2000/svg" xmlns:xlink="http://www.w3.org/1999/xlink" viewBox="0 0 191.54 466.96"><defs><style>.cls-1{stroke:#000;stroke-miterlimit:10;fill:url(#linear-gradient);}.cls-2{fill:url(#linear-gradient-2);}</style><linearGradient id="linear-gradient" x1="86.88" y1="464.58" x2="86.88" y2="349.42" gradientUnits="userSpaceOnUse"><stop offset="0" stop-color="#696bff"/><stop offset="0.18" stop-color="#5882ff"/><stop offset="0.54" stop-color="#2ebeff"/><stop offset="0.91" stop-color="aqua"/></linearGradient><linearGradient id="linear-gradient-2" x1="141.4" y1="177.16" x2="141.4" y2="37.92" gradientTransform="translate(-56.31 81.46) rotate(-43.05)" gradientUnits="userSpaceOnUse"><stop offset="0" stop-color="#ff5f2a"/><stop offset="0.4" stop-color="#ff4a41"/><stop offset="0.91" stop-color="#ff2a65"/></linearGradient></defs><title>Asset 1logo</title><g id="Layer_2" data-name="Layer 2"><g id="Layer_1-2" data-name="Layer 1"><path class="cls-1" d="M3.08,429.4c1.76.44,5.23,14.31,7,14,2.6-.46,13.36,10.24,16,10s13.54,6.3,16,7c4.32,1.22,20,4,32,3,5.36-.45,44,7,74-9,2.26-1.21,15.78-11.77,17-14,6-11,5-12,7-16,.71-1.42-2.58-16.26-1-16s-2.45-10.54-1-10c1.69.63-4.61-11.11-3-12,1.15-.64-7.4-10-6-10s-5.23-14.35-4-14c2.12.61-1.49-2.22-3-4-1.21-1.42-1.56-5.12-2-5-2.55.66-5.71,6.48-8.09,5.19a4.5,4.5,0,0,0-4.41-.26,30.55,30.55,0,0,1-2.85,1.45,6.87,6.87,0,0,1-4.52-.78,14.13,14.13,0,0,0-5.26-1.29,24.06,24.06,0,0,0-6.42.92c-2.54.62-5.07,1.95-7.72,1.38-2.26-.48-4.36-1.57-6.63-2a24.16,24.16,0,0,0-6.63-.2c-4.69.47-8.89,2.87-13.69,1.92-2.09-.41-4.06-1.42-6.2-1.6a21.7,21.7,0,0,0-6.46.76c-2.41.56-4.81,1.24-7.3,1-2.09-.22-3.72-1.49-5.76-1.78-4.48-.65-8.37,2.53-12.78,1.61-2.07-.43-3.94-1.74-6.11-1.56s-4.23,1-6.4,1.22-4.12-.95-6.35-1.26c-.92-.13-3.68-4.81-3.42-5.71.76-2.69,3.13-7-5,7-.23.39-2,8-3,11-.25.73-1,0-4,8-.39,1-3.75,4.62-3,4,4.87-4.09-6.83,16.07-5,16,2.06-.09-4,10.36-2,10,2.25-.4-3.12,9.35-1,10,1.46.45-.53,6.27,1,6,2.35-.43.2,3,0,5"/><path d="M118.43,6.39c-.43-.46-.17,1.23.51,1.41,5.42,1.48,3.81-.84,6.68,2.44A10.52,10.52,0,0,0,131.75,14c5.32,1.3,13.44,4.31,15.8,5.86s3.28,2.92,4.74,7.17c1.63,4.69.1,14.5-3.25,20.85-1.6,3-3,5.74-3,6-.23.85-9,17.77-9.48,18a16.42,16.42,0,0,0-2.29,2.85,60.48,60.48,0,0,1-6.65,7l-3.17,2.89c-.54.49,0,1.28.78,1.2l3.38-.35a42.65,42.65,0,0,1,7.47-.25,12.61,12.61,0,0,0,3.74,0c3.86-.59,59,27,51,26-54.1-6.36-47.37-18.84-41.77-16.74,4.52,1.69-31.2-10.91-26-4.65.55.66,13,.79,12.44.53s7.74,4.95,4.78,5.09a34.5,34.5,0,0,1-6.08-.1c-1.1-.5-9.17-.93-10.07-.54-.47.2.19.87,1.57,1.68,4,2.26,5.65,5.63,4.33,8.88-.62,1.56.69,5.49.58,6.59-.3,3.21,6.6,30.28,4.46,30.67-2.41.47-16.51-21.68-16.22-26.25.47-7-.38-8.74-6.61-13.86-1.39-1.14-1.53-1.12-2.18.47a3.15,3.15,0,0,0-.11,2.57c.3.52.35,3.18,0,6s-.2,5.57.23,6.23.57,3.49.32,6.32a23.81,23.81,0,0,0-.18,5.66,13.49,13.49,0,0,1-.2,4,12.57,12.57,0,0,0-.24,4.07c.18.3,1.24-.08,2.36-.84,1.72-1.16,2.11-1.14,2.88,0,.58.88.31,1.92-.71,3a14.85,14.85,0,0,0-2.63,4.08c-.59,1.34-1.18,2.25-1.34,2s-.83.37-1.5,1.38-1,2.11-.82,2.44-.1,2.49-.73,4.74-1,4.39-.78,4.72c.55.83-2.49,13.6-3.64,15.22a2.34,2.34,0,0,0-.38,2.18c.3.47-.14,2.44-1,4.39s-1.37,3.78-1.19,4.08a5,5,0,0,1-.47,2.67c-.44,1.16-1.86,6.17-3.16,11.13s-2.87,10.67-3.49,12.68c-1.1,3.52-1,4.89.12,4.37.3-.14,2.87-2,5.74-4.1,5.17-3.83,21.83-13.86,24.26-19.55a29.28,29.28,0,0,1,4.34-6.42c2.64-2.94,4-3.85,9.87-6.34,4.06-1.73,7.89-3,9.59-3,1.47-.07,2.9-.16,3.21-.18h.07a147,147,0,0,0,15.93-3.32c6.92-1.87,8.24-1.15,6.27,3.47-.66,1.52-1.43,3.5-1.69,4.37a3.9,3.9,0,0,1-1,1.87A34.12,34.12,0,0,0,166,188c-7.48,11.13-27.18,22.06-36.06,16.17-3.38-2.24-4.14-2.74-5-3.23-1.57-.82-15,4.34-20.61,8.85-3.13,2.55-7.93,7-8.63,7.32s-2.49,3.1-3.91,4.76c-2.27,2.72-3.17,5.5-4.15,13-.55,4.43-1.86,11.56-2.73,15-.52,2.07-1.17,5-1.46,6.56l-.18.92c-.13.65.8,1.1,1.42.69h0c3-2,4.48-1.34,3.35,1.41a10.68,10.68,0,0,1-2.42,3.59,13.44,13.44,0,0,0-2.57,3.6,7.18,7.18,0,0,1-2.29,2.85,1.72,1.72,0,0,0-.86,1.76,15.57,15.57,0,0,1-.59,4.65,23.71,23.71,0,0,0-.76,5.52,39.8,39.8,0,0,1-.63,6.33c-.36,2.27-1,6-1.36,8.21a57.53,57.53,0,0,0-.76,6.89c0,1.53,0,3.4-.07,4.13-.08,1,.43,1.49,1.85,1.85s2,.86,2,2c0,.86-.27,1.65-.6,1.8-2.17.93-4,10.27-2.5,12.56a1.16,1.16,0,0,1,.06,1.42c-.57.57,0,10.5.73,11.55a25.66,25.66,0,0,1,.85,5.48,70.62,70.62,0,0,0,1,7.72c.39,1.6,1.42,6.56,2.38,11,2.4,11.35,14.71,43.83,19.37,53.58,4.26,8.94,16.1,28.12,13.84,27.53-1.1-.29-2.95,4-4.2-2.84-.55-3-28.35-53.5-29.41-58.84-.23-1.15-1.48-7.4-2.13-11.64s-1.79-8.56-2.47-9.63a4.84,4.84,0,0,1-1-2.81c.38-1.14-1.1-11.56-2-14.12a42.49,42.49,0,0,1-1-7.5c-.19-3.07-.56-6-.9-6.45s-.38-2.84-.11-5.24A21,21,0,0,0,71.3,318a21.39,21.39,0,0,1-.07-6.84c.32-2.62.35-5.09.08-5.53-.5-.72-.13-5.51.51-6.64a11.34,11.34,0,0,0,.21-2.95.65.65,0,0,0-.21-.45,13.93,13.93,0,0,1-1-1.08l-.08-.13a6.72,6.72,0,0,1-.72-3.14,12.16,12.16,0,0,0-.66-3.7c-.89-2.23-.82-5.16.12-5.79.67-.45,1.5.15,2.83,2l.89,1.27.09.33s0-.18,0-.21a13.78,13.78,0,0,1,.57-4.16.13.13,0,0,1,0-.06A178.11,178.11,0,0,1,80,250.79s0,0,0-.06c.43-2.64,1.18-6.39,1.65-8.35,1.31-5.29,1.36-5.66,1-6.24-.21-.3,0-1.58.55-2.82s.79-2.49.6-2.77.13-2.08.7-4c3.28-10.86,3.87-14,2.92-15.52a10.31,10.31,0,0,1-1.15-4.48,21.57,21.57,0,0,0-.78-4.86c-1-2.92,1.44-3.14,4-.37a5.84,5.84,0,0,0,1.45,1.22c.23.06,1.37-3.62,2.58-8.19s2.42-9.15,2.79-10.24a32.94,32.94,0,0,0,1-4.86c.34-2.75.17-3.16-2.91-6.35-9.16-9.43-9.84-9.76-15.17-7.52C70.55,169,55,166,43.44,158.51c-4.27-2.73-12.49-6.57-15.5-7.18-1.82-.4-2.36-.83-2.38-2,0-1.32.83-1.79,9.39-5.15,11.26-4.44,15.18-5.64,21.34-6.58,6.53-1,11.4.13,18.06,4.34,4.88,3.07,6.07,4.23,8.88,8.42a38.71,38.71,0,0,1,4.24,8.72c1,3.6,1.24,4,5.11,7.06a43.11,43.11,0,0,1,4.64,4,1.16,1.16,0,0,0,1.35.49c1-.45,2.74-5.9,2.5-7.86-.13-.84.51-4.36,1.38-7.81.37-1.49.72-3.17,1-4.77a38.77,38.77,0,0,0,.65-5.33c0-2.12.42-7,.91-10.83a72.66,72.66,0,0,0,.42-12.35c-.25-3-.4-8-.33-11.23.12-5.23-.25-7.29-1.44-8.59-.34-.34-4.71,4.65-9,10.4-.8,1.06-2,2.54-2.5,3.27a38.54,38.54,0,0,0-2.66,4.67c-2.87,5.93-19,14.4-22.57,9-2.89-4.41,10.4-15.42,12.88-19a49.76,49.76,0,0,1,10.33-11c3.21-2.46,3.82-2.12-5.75-3.51-2.24-.37-5-.86-6.17-1.13a7.4,7.4,0,0,0-3.24-.11,13.47,13.47,0,0,1-4.78.82c-1.29.08-4.09.47-6.2.86-7.52,1.42-23.68,8.22-24.26,7.33C38.76,102,58,89.9,61.36,87.73a25.88,25.88,0,0,1,6-2.73c2.78-.74,11.85.11,15,1.4,2.55,1,2.21-.31-.65-2.47-1.46-1.11-3.71-2.81-5-3.81-6.47-4.94-19.86-22.2-20.49-26.39-.16-1-.8-3.76-1.42-6.13-2.14-8-1.27-13.12,3.13-18,2.06-2.27,4-3.42,10.62-6.31,5.53-2.42,11.25-10.28,10.91-10.78s1.6,1.82,3.19.58c.82-.64,1.31,1.41,2.65.77,1-.5,5,8,6.11,7.51,3.47-1.35,6.84-11.37,10.43-11.86,3.06-.43,1.4-.91,4.61-1.36.52-.07,5.64-.31,5.71-.65,0,0,0,0,.09,0Z"/><path class="cls-2" d="M90.57,4.58a86.1,86.1,0,0,0-11.48,4.2A52.13,52.13,0,0,0,61.63,25c-5.22,10-6.21,22.18-3.31,33.24.27,4.69,3.76,9.78,1.48,14.13C55.33,79.19,51.74,88.17,56.35,96c4.94,10.35,21.27,26.62,33.29,25.84,5.54.77,10.47-2.47,15.81-2.16,6.81,4.6,14.78,7.1,22.76,8.36,11.48,1.32,23.81-.14,33-7.5C171.6,112.4,175,98.91,178.91,86.76c.91-6.16,4.57-11.14,7.44-16.46,4.87-8.64.71-18.43-1.64-27.14C181.1,33.53,180.25,22.1,172,15,161.51,3.68,144.73.59,130.63,4.72c-4.26.62-12.8-1.84-16.53-.61a44.58,44.58,0,0,0-23.53.47Z"/><path d="M87.62,4.67C98,1.38,104.88.84,112,2.72c3.57,1,3.71.93,5.64-1.48,3-3.69,11.86,2.14,20.41.9,16-.93,27,2.68,36.47,12.83,8.24,7,9.32,17.37,12.3,27.27,6.52,16.47,6.76,24.44-2.66,37.89-1.15,1.23-1.93,2.94-1.68,3.74s-.73,4.52-2.13,8.25A51.67,51.67,0,0,0,178,99.48a29.86,29.86,0,0,1-2,5.18c-1.19,2.57-2.08,5-2,5.31.3,1.1-7.23,10.15-11.11,13.33-10.94,8.94-31.76,10.56-47.93,3.68a39.19,39.19,0,0,1-8-4.35c-1.46-1.3-2.32-1.52-2.57-.67-.48,1.74-9.62,3.07-16.93,2.53-9.41-.77-23.79-13.2-29.81-23.18-3.21-5.38-4.44-9-4.46-13.4,0-4.06,3.31-12.43,5.65-14.22,1.56-1.15,1.5-2.31-.56-11.23C55.11,48.67,55,46.8,57,35.87c1.62-9,5.26-14.64,14.59-22.65,5.71-4.89,7.23-5.7,16-8.52Zm3.27,4.4c-5.3,1.56-10.69,3.71-13.49,5.66-6.45,4.45-9.91,7.78-13,12.61-4.08,6.3-4.41,7.29-4.87,15-.32,5.38.19,9.89,2,17.56,2.7,11.37,3.86,12.61,5.56,5.85.54-2.1,1.23-4,1.58-4.05s2.14-2.66,4-5.7a36.93,36.93,0,0,1,4-5.72,11.79,11.79,0,0,0,2.48-3.14,14.61,14.61,0,0,1,4.46-4.28c2.15-1.09,2.38-1.72,1.6-4.47C83.73,33.09,84.46,29,87.91,24c4.27-6.2,6-7.89,13.16-12.67L107,7.38l-3.18-.51c-2.44-.37-7.65.6-12.93,2.2Zm43.43-1.89c-1.63.45-11.2-3.26-12.37-2.38C119,7,120.5,5.87,125.16,6.7c5.12.94,21.06,12.87,24.91,16.76,1.71,1.68,3.62,2.91,4.27,2.72,1.07-.28,4.86.1,11.58,1.22A36.15,36.15,0,0,1,172.86,30c2.48,1.17,4.78,2,5.17,1.94,1.1-.3-2.41-7.77-5.63-12-3.08-4-12.56-11.62-14-11.21A13.05,13.05,0,0,1,154,7.45c-3.81-1.48-14.72-1.67-19.67-.27ZM112.2,12.05A33.47,33.47,0,0,0,93.14,24.34c-1.87,2.45-3.6,5.57-3.82,6.94-.42,2.63.69,7.44,1.87,8.13.43.24,3.24-1.44,6.24-3.74,9.52-7.22,23.57-9.77,32-5.75a22.42,22.42,0,0,0,8,1.52,29.28,29.28,0,0,1,7.6,1l9.27,7.91-8.53-12.22c-1.16-3-2.94-6-4-6.74-8.31-6.13-11.55-7.95-16.51-9.23a27.28,27.28,0,0,0-13.08-.1Zm-1.58,21.72C103.69,35.7,88,51.18,89.06,55a6.58,6.58,0,0,1-.69,3.63c-.83,1.7-.61,4.24.74,9.6,1.59,6.28,2.39,7.87,5.57,11.25,2.61,2.7,11.24,11,13.72,11.26,5.92.78,8.7-.54,11.58-5.5,2.44-4.15,2.47-4.5.59-5C113,78.15,101.68,67.28,100.15,61.9c-1.21-4,2-13.23,6.27-18.3,2.66-3.13,3.69-3.68,9-4.74,7.71-1.5,9-.83,10.88,5.43,1.16,4,7.58,12.64,6.32,15.55-2.36,5.34-15,1.45-17.62-1.79-.78-1-.5-5-.43-5.28,1-4.07,1.34,3.35,4,3.13,1.79-.15,3.24-4,3.66-6.32.91-5.54-.67-7-6.46-5.81-3.65.77-4.75,1.48-6.29,4.06-1,1.74-2.09,3.2-2.41,3.27-.92.27-2.49,8.6-2,10.46,2.25,7.69,19.44,16.37,28.13,10.43,6.47-4.42,10.38-9.66,10.41-14,0-5.78-7.93-16.92-11-19.83-4.63-4.31-14.88-6.34-22-4.39Zm47.22-2.41c-.93.26,2.65,13.62,4.94,18.38,1.82,3.8,2.41,6,2.15,8.28-.38,3.49-15,31.85-16.7,32.33a1.23,1.23,0,0,0-.7,1.58c.5,1.75,10.5,1.75,14.78,0a41.94,41.94,0,0,0,13.79-10c11.34-9.75,12-19.26,8.75-33.43-3.19-6.39-9-12.23-14.34-14.28-4.32-1.68-11.22-3.22-12.67-2.82ZM85.43,47.92c-1,.28-3.76,3.31-6.73,7.38-6.46,8.82-8.2,13.25-8.64,21.84-.57,10.88,10.2,24.52,21.06,29.75,10.26,4.89,15.51,5.92,25.59,5,8.22-.7,9.34-1,13.64-3.69,4.47-2.84,8.69-7.45,8.2-9.06-.1-.43-.94-.37-1.86.19-4.34,2.54-22.12.14-23.14-3.15-.19-.63-2-1.19-4.17-1.3C105,94.67,90.56,83.36,88.49,80c-.79-1.24-2.61-6.36-4-11.34-2.59-8.93-2.57-9.1-.55-14.94,1.13-3.24,1.81-5.84,1.54-5.76ZM140.1,36.41c-.57.26,6.23,8.34,7.63,11.9,2.48,6.36,2,10.48-2,17.25-2.58,4.45-11.52,12.3-15.14,13.3-1,.27-3.3,3.2-5,6.51s-3.63,6.12-4.2,6.31c-2.52.69.13,3,4.31,3.8,6.4,1.18,9.58,0,15.83-5.81,7.12-6.61,18.41-27.39,17.76-32.59C158.39,50,147.59,38,141,36.49a1.74,1.74,0,0,0-.89-.08ZM62.87,77.17a2.35,2.35,0,0,0-1,.42c-2.51,1.57-4.52,6.9-3.68,9.81a24,24,0,0,1,.8,3.84,43.29,43.29,0,0,0,1.91,6.42c2.5,6.85,17.72,21.7,23.13,21.92a19.45,19.45,0,0,1,4.89.69c.71.32,4.19.14,7.71-.38,5.53-.85,6.34-1.17,5.94-2.49-.23-.86-2-2-3.92-2.49-4.43-1.19-7.92-2.82-14.57-6.73-7.94-4.67-16-13.87-18.41-23.46-1.49-5.85-1.93-7.51-2.76-7.55Zm82.76,21.4-2.44,3.28c-1.31,1.83-2.78,4-3.26,4.86a10.23,10.23,0,0,1-3.22,2.86,12.27,12.27,0,0,0-3.25,2.54c-.91,1.3-15.55,4.73-21.2,5-4,.17-3,1.8,3.23,5.33,10,5.7,22.42,6.34,35,1.78,7.54-2.71,13.49-7.51,16.77-13.54,2.47-4.5,8.41-19.1,7.9-19.41-.22-.11-2.72,1.16-5.58,2.81-6.64,3.9-9.06,4.54-17.22,4.5Z"/><path d="M79.31,208.9c-10.17.07-19.39.2-26,6.85-.89,2-.66,4.05,1.44,12.29C57.82,240.11,59,248.3,59,257.76c0,9.22-2.21,24.59-4.05,27.9a47.72,47.72,0,0,0-3,8.72c-1.57,6.19-5.85,16.31-7.36,17.44a2.62,2.62,0,0,0-.79,1.91c0,.7-1.71,3.65-3.82,6.49s-3.84,5.57-3.84,6.08a8.8,8.8,0,0,1-1.74,3.24,58.63,58.63,0,0,0-4,6.68c-1.2,2.41-3.44,6.62-5,9.36s-3.64,6.85-4.58,9.09-3,6.48-4.58,9.39-2.94,5.91-3,6.65a11.06,11.06,0,0,1-1.84,4.08c-4,5.91-8,21.15-10.59,39.6C-.3,422.3-.26,425.51.88,428.15,4.72,437.08,5.52,439,6,440.52c.34.94,2.08,2.8,3.88,4.15s3.34,2.63,3.34,2.93c0,1.14,13.27,10.16,18.21,12.1C51.57,466.76,68.18,467,91.24,467c18.91.17,38.29-2.37,53.9-8.29,4.94-1.93,16.65-9.92,16.65-11.06,0-.3,1.49-1.63,3.3-2.93s3.58-3.21,3.91-4.15c.5-1.53,1.31-3.44,5.15-12.37,1.14-2.64,1.14-5.85.07-13.76-2.54-18.45-6.62-33.72-10.6-39.64a11.75,11.75,0,0,1-1.87-4c0-.74-1.34-3.71-2.94-6.65s-3.68-7.15-4.61-9.39a92.45,92.45,0,0,0-4.54-9.09c-1.58-2.74-3.85-6.95-5-9.36a53.62,53.62,0,0,0-4-6.68,9,9,0,0,1-1.77-3.24c0-.51-1.7-3.24-3.81-6.08s-3.81-5.79-3.81-6.49a2.63,2.63,0,0,0-.8-1.91c-1.5-1.13-5.78-11.25-7.39-17.44a50.76,50.76,0,0,0-3-8.75C118.24,282.32,116,267,116,257.76c0-9.46,1.21-17.65,4.31-29.72,2.11-8.28,2.34-10.32,1.44-12.29-6.68-6.65-15.88-6.78-26-6.85-2.81,0-5.52.07-8.19.1s-5.42-.1-8.19-.1Zm8.18,2.54c5.52.23,10.73.63,13.61,1.44,3.68,1,9.52,4.64,9.52,5.87,0,1.71-6.08,3.85-11.93,4.22-4.15.27-8.22.39-12.09.43-3.35-.06-6.79-.2-10.3-.43-5.81-.37-11.93-2.51-11.93-4.22,0-1.23,5.88-4.87,9.56-5.87,2.84-.81,8-1.21,13.56-1.44ZM67.35,212a16.27,16.27,0,0,0-6.26,4c-1.23,1.47-1.56,2-1.17,2.94a2.65,2.65,0,0,1-1.07-2.41c.37-2.13,3.82-3.67,8.5-4.55Zm40.29,0c4.72.88,8.13,2.42,8.5,4.55a2.65,2.65,0,0,1-1.07,2.41c.4-.91.07-1.47-1.14-2.94a16.1,16.1,0,0,0-6.29-4ZM116,222.13c.7-.23.67.64.33,4A73.23,73.23,0,0,1,115,234a32.21,32.21,0,0,0-.8,4.37,33.75,33.75,0,0,1-1,4.68c-1.7,6.22-1.94,18.14-.57,29.08,1.44,11.66,2.14,14.36,6.85,26.26,1.84,4.65,3.71,9.56,4.15,11,1,3.14,4.21,8.66,10.39,17.92,2.67,4,4.88,7.78,4.88,8.35s1.74,3.84,3.81,7.32a47.14,47.14,0,0,1,3.81,7.12c0,.43,1.74,3.64,3.84,7.18s3.81,6.95,3.81,7.59,1.67,4.41,3.68,8.45c3.91,7.75,4.44,9.29,8.31,22.66,1.81,6.28,2.58,11.39,2.95,20,.54,11.09.43,11.79-1.9,17-3.21,7.16-5.55,10.33-9.66,13.14-1.84,1.24-3.38,2.51-3.38,2.81s-1.33,1.2-3,2.07-3.87,2.14-5,2.87c-3,1.94-10,4.41-17.47,6.16a191.45,191.45,0,0,1-35.09,3.33c-16.31-.33-34.82-.43-47.25-3.33-7.43-1.75-14.48-4.22-17.48-6.16-1.1-.73-3.38-2-5-2.87s-3-1.81-3-2.07-1.51-1.57-3.38-2.81c-4.11-2.81-6.44-6-9.65-13.14-2.34-5.21-2.41-5.91-1.91-17,.4-8.63,1.14-13.74,2.95-20,3.87-13.37,4.44-14.91,8.31-22.66,2.05-4,3.68-7.85,3.68-8.45s1.7-4.05,3.81-7.59,3.84-6.75,3.84-7.18a47.14,47.14,0,0,1,3.81-7.12c2.11-3.48,3.81-6.79,3.81-7.32s2.21-4.31,4.88-8.35c6.18-9.26,9.36-14.78,10.39-17.92.47-1.4,2.34-6.31,4.18-11,4.68-11.9,5.38-14.6,6.81-26.26,1.38-10.94,1.14-22.86-.53-29.08a44,44,0,0,1-1.07-4.68A32.21,32.21,0,0,0,60,234a68.92,68.92,0,0,1-1.3-7.92c-.33-3.31-.4-4.18.3-3.91a3.79,3.79,0,0,1,1,.56,19.56,19.56,0,0,0,6.22,1.74c2.37.7,6.45,1,12.33,1.14l3.17.1c.77,0,1.21,0,2.05,0,1.36,0,2.47,0,3.73,0s2.41,0,3.78,0c.84,0,1.24,0,2,0l3.17-.1c5.91-.17,9.93-.44,12.3-1.14a19.8,19.8,0,0,0,6.25-1.74,8,8,0,0,1,1-.6ZM89.2,420.77c-1.34,0-2.44,0-3.48.07-1.77,0-3.1,0-5.38.06-12.06.21-18.41.57-19.84,1.14a29.61,29.61,0,0,1-5.15,1.37c-1.67.3-5.88,1.13-9.36,1.9L37.9,427a10,10,0,0,0-3,1.27,27.77,27.77,0,0,1-4.18,2.11c-1.93.79-5.21,3.7-7.78,6.54-1.41,2.58,1,4.52,3.44,1.61,2-2.38,3.18-2.94,4.85-4.48,3.2-1.87,20.65-6.95,26.29-7.65,1.84-.24,6.05-.87,9.36-1.37a169.05,169.05,0,0,1,19.55-1c1.4,0,1.67-.06,2.81-.06s1.43.06,2.84.06a169,169,0,0,1,19.52,1c3.34.5,7.55,1.13,9.39,1.37,5.64.7,23,5.78,26.27,7.65a21.32,21.32,0,0,1,3.2,2.34c1.64,1.93,3.18-.24,0-4.35a14.8,14.8,0,0,0-2.67-1.66,28.37,28.37,0,0,1-4.21-2.11,9.69,9.69,0,0,0-3-1.27l-8.09-1.71c-3.5-.77-7.71-1.6-9.39-1.9a29,29,0,0,1-5.14-1.37c-1.44-.57-7.76-.93-19.82-1.14-2.31-.06-3.61-.06-5.42-.06-1,0-2.14-.07-3.47-.07Z"/></g></g></svg>